# xmcd
#
# Track frame offsets:
#	150
#	20443
#	36489
#	61805
#	81958
#	99214
#	118633
#	141843
#
# Disc length: 2157 seconds
#
# Revision: 0
# Processed by: cddbd v1.4PL0 Copyright (c) Steve Scherf et al.
# Submitted via: dBpowerAMP V4.0
#
DISCID=63086b08
DTITLE=Various Artist - House of Blues - Highlights from New and Classic Releases on Alligator
DYEAR=1900
DGENRE=Blues
TTITLE0=Women have a way with a fool - Coco Montoya
TTITLE1=Desperate Man - Little Charlie and the Nightcats
TTITLE2=Happy Valentine's Day - Shemekia Copeland
TTITLE3=Let it Rain - W.C. Clark
TTITLE4=Bring Me My Coat and Shoes - Buddy Guy and Junior wells
TTITLE5=Never Miss Your Water - Lil'ed and The Blues Imperials
TTITLE6=Railroad Bill - Cephas and Wiggins
TTITLE7=Landloard At My Door - Son Seals
EXTD=House of Blues free CD
EXTT0=
EXTT1=
EXTT2=
EXTT3=
EXTT4=
EXTT5=
EXTT6=
EXTT7=
PLAYORDER=
